<svg width="21" height="20" viewBox="0 0 21 20" fill="none" xmlns="http://www.w3.org/2000/svg">
<g clip-path="url(#clip0)">
<path d="M11.0906 0.768403C10.9481 0.650903 10.7594 0.602153 10.5769 0.635903L0.576895 2.5109C0.280645 2.5659 0.0668945 2.8234 0.0668945 3.12465V16.8747C0.0668945 17.1747 0.280645 17.4334 0.576895 17.4884L10.5769 19.3634C10.6144 19.3709 10.6544 19.3747 10.6919 19.3747C10.8356 19.3747 10.9781 19.3247 11.0906 19.2309C11.2344 19.1122 11.3169 18.9347 11.3169 18.7497V1.24965C11.3169 1.0634 11.2344 0.887153 11.0906 0.768403ZM10.0669 17.9959L1.31689 16.3559V3.6434L10.0669 2.0034V17.9959Z" fill="#34C5B2"/>
<path d="M19.4419 3.12463H10.6919C10.3469 3.12463 10.0669 3.40463 10.0669 3.74963C10.0669 4.09463 10.3469 4.37463 10.6919 4.37463H18.8169V15.6246H10.6919C10.3469 15.6246 10.0669 15.9046 10.0669 16.2496C10.0669 16.5946 10.3469 16.8746 10.6919 16.8746H19.4419C19.7869 16.8746 20.0669 16.5946 20.0669 16.2496V3.74963C20.0669 3.40463 19.7869 3.12463 19.4419 3.12463Z" fill="#34C5B2"/>
<path d="M13.1919 5.62463H10.6919C10.3469 5.62463 10.0669 5.90463 10.0669 6.24963C10.0669 6.59463 10.3469 6.87463 10.6919 6.87463H13.1919C13.5369 6.87463 13.8169 6.59463 13.8169 6.24963C13.8169 5.90463 13.5369 5.62463 13.1919 5.62463Z" fill="#34C5B2"/>
<path d="M13.1919 8.12463H10.6919C10.3469 8.12463 10.0669 8.40463 10.0669 8.74963C10.0669 9.09463 10.3469 9.37463 10.6919 9.37463H13.1919C13.5369 9.37463 13.8169 9.09463 13.8169 8.74963C13.8169 8.40463 13.5369 8.12463 13.1919 8.12463Z" fill="#34C5B2"/>
<path d="M13.1919 10.6246H10.6919C10.3469 10.6246 10.0669 10.9046 10.0669 11.2496C10.0669 11.5946 10.3469 11.8746 10.6919 11.8746H13.1919C13.5369 11.8746 13.8169 11.5946 13.8169 11.2496C13.8169 10.9046 13.5369 10.6246 13.1919 10.6246Z" fill="#34C5B2"/>
<path d="M13.1919 13.1246H10.6919C10.3469 13.1246 10.0669 13.4046 10.0669 13.7496C10.0669 14.0946 10.3469 14.3746 10.6919 14.3746H13.1919C13.5369 14.3746 13.8169 14.0946 13.8169 13.7496C13.8169 13.4046 13.5369 13.1246 13.1919 13.1246Z" fill="#34C5B2"/>
<path d="M16.9419 5.62463H15.6919C15.3469 5.62463 15.0669 5.90463 15.0669 6.24963C15.0669 6.59463 15.3469 6.87463 15.6919 6.87463H16.9419C17.2869 6.87463 17.5669 6.59463 17.5669 6.24963C17.5669 5.90463 17.2869 5.62463 16.9419 5.62463Z" fill="#34C5B2"/>
<path d="M16.9419 8.12463H15.6919C15.3469 8.12463 15.0669 8.40463 15.0669 8.74963C15.0669 9.09463 15.3469 9.37463 15.6919 9.37463H16.9419C17.2869 9.37463 17.5669 9.09463 17.5669 8.74963C17.5669 8.40463 17.2869 8.12463 16.9419 8.12463Z" fill="#34C5B2"/>
<path d="M16.9419 10.6246H15.6919C15.3469 10.6246 15.0669 10.9046 15.0669 11.2496C15.0669 11.5946 15.3469 11.8746 15.6919 11.8746H16.9419C17.2869 11.8746 17.5669 11.5946 17.5669 11.2496C17.5669 10.9046 17.2869 10.6246 16.9419 10.6246Z" fill="#34C5B2"/>
<path d="M16.9419 13.1246H15.6919C15.3469 13.1246 15.0669 13.4046 15.0669 13.7496C15.0669 14.0946 15.3469 14.3746 15.6919 14.3746H16.9419C17.2869 14.3746 17.5669 14.0946 17.5669 13.7496C17.5669 13.4046 17.2869 13.1246 16.9419 13.1246Z" fill="#34C5B2"/>
<path d="M8.66297 12.0883L4.28797 7.08833C4.05797 6.82708 3.66422 6.80208 3.40547 7.02958C3.14547 7.25708 3.11922 7.65208 3.34672 7.91083L7.72172 12.9108C7.84547 13.0521 8.01797 13.1246 8.19172 13.1246C8.33797 13.1246 8.48422 13.0733 8.60422 12.9696C8.86422 12.7421 8.89047 12.3483 8.66297 12.0883Z" fill="#34C5B2"/>
<path d="M8.57567 6.38212C8.30317 6.16837 7.91067 6.21962 7.69817 6.49087L3.32316 12.1159C3.11191 12.3884 3.16067 12.7821 3.43317 12.9934C3.54817 13.0821 3.68316 13.1246 3.81692 13.1246C4.00192 13.1246 4.18692 13.0421 4.30942 12.8846L8.68442 7.25962C8.89692 6.98587 8.84817 6.59337 8.57567 6.38212Z" fill="#34C5B2"/>
</g>
<defs>
<clipPath id="clip0">
<rect width="20" height="20" fill="white" transform="translate(0.0668945)"/>
</clipPath>
</defs>
</svg>
