<svg width="21" height="20" viewBox="0 0 21 20" fill="none" xmlns="http://www.w3.org/2000/svg">
<g clip-path="url(#clip0)">
<path d="M0.0668945 0H20.0669V20H0.0668945V0Z" fill="white"/>
<path d="M15.9001 6.66667H15.0667V2.5H5.06673V6.66667H4.2334C2.85007 6.66667 1.7334 7.78333 1.7334 9.16667V14.1667H5.06673V17.5H15.0667V14.1667H18.4001V9.16667C18.4001 7.78333 17.2834 6.66667 15.9001 6.66667ZM6.7334 4.16667H13.4001V6.66667H6.7334V4.16667ZM13.4001 14.1667V15.8333H6.7334V12.5H13.4001V14.1667ZM15.0667 12.5V10.8333H5.06673V12.5H3.40007V9.16667C3.40007 8.70833 3.77507 8.33333 4.2334 8.33333H15.9001C16.3584 8.33333 16.7334 8.70833 16.7334 9.16667V12.5H15.0667Z" fill="#34C5B2"/>
<path d="M15.0667 10.4167C15.527 10.4167 15.9001 10.0436 15.9001 9.58333C15.9001 9.1231 15.527 8.75 15.0667 8.75C14.6065 8.75 14.2334 9.1231 14.2334 9.58333C14.2334 10.0436 14.6065 10.4167 15.0667 10.4167Z" fill="#34C5B2"/>
</g>
<defs>
<clipPath id="clip0">
<rect width="20" height="20" fill="white" transform="translate(0.0668945)"/>
</clipPath>
</defs>
</svg>
