<svg width="21" height="20" viewBox="0 0 21 20" fill="none" xmlns="http://www.w3.org/2000/svg">
<g clip-path="url(#clip0)">
<path d="M0.0668945 0H20.0669V20H0.0668945V0Z" fill="white"/>
<path d="M14.7754 5.29165C13.567 4.08331 11.9087 3.33331 10.067 3.33331C6.38369 3.33331 3.40869 6.31665 3.40869 9.99998C3.40869 13.6833 6.38369 16.6666 10.067 16.6666C13.1754 16.6666 15.767 14.5416 16.5087 11.6666H14.7754C14.092 13.6083 12.242 15 10.067 15C7.30869 15 5.06702 12.7583 5.06702 9.99998C5.06702 7.24165 7.30869 4.99998 10.067 4.99998C11.4504 4.99998 12.6837 5.57498 13.5837 6.48331L10.9004 9.16665H16.7337V3.33331L14.7754 5.29165Z" fill="#34C5B2"/>
</g>
<defs>
<clipPath id="clip0">
<rect width="20" height="20" fill="white" transform="translate(0.0668945)"/>
</clipPath>
</defs>
</svg>
