<svg width="21" height="20" viewBox="0 0 21 20" fill="none" xmlns="http://www.w3.org/2000/svg">
<path d="M14.2336 2.5H4.23356C3.30856 2.5 2.56689 3.25 2.56689 4.16667V15.8333C2.56689 16.75 3.30856 17.5 4.23356 17.5H15.9002C16.8169 17.5 17.5669 16.75 17.5669 15.8333V5.83333L14.2336 2.5ZM15.9002 15.8333H4.23356V4.16667H13.5419L15.9002 6.525V15.8333ZM10.0669 10C8.68356 10 7.56689 11.1167 7.56689 12.5C7.56689 13.8833 8.68356 15 10.0669 15C11.4502 15 12.5669 13.8833 12.5669 12.5C12.5669 11.1167 11.4502 10 10.0669 10ZM5.06689 5H12.5669V8.33333H5.06689V5Z" fill="#34C5B2"/>
</svg>
