<svg width="25" height="24" viewBox="0 0 25 24" fill="none" xmlns="http://www.w3.org/2000/svg">
<path d="M15.5669 14H14.7769L14.4969 13.73C15.4769 12.59 16.0669 11.11 16.0669 9.5C16.0669 5.91 13.1569 3 9.56689 3C5.97689 3 3.06689 5.91 3.06689 9.5C3.06689 13.09 5.97689 16 9.56689 16C11.1769 16 12.6569 15.41 13.7969 14.43L14.0669 14.71V15.5L19.0669 20.49L20.5569 19L15.5669 14V14ZM9.56689 14C7.07689 14 5.06689 11.99 5.06689 9.5C5.06689 7.01 7.07689 5 9.56689 5C12.0569 5 14.0669 7.01 14.0669 9.5C14.0669 11.99 12.0569 14 9.56689 14Z" fill="#34C5B2"/>
</svg>
